<?xml version="1.0" encoding="UTF-8"?><svg id="Capa_1" xmlns="http://www.w3.org/2000/svg" viewBox="0 0 383.25 269.56"><defs><style>.cls-1{fill:#709646;stroke-width:0px;}</style></defs><path class="cls-1" d="m339.34,216.14c-.82,2.5-1.64,5.01-2.4,7.34-29.85-29.59-59.51-58.99-89.24-88.45,29.89-29.59,59.62-59.03,89.39-88.5.61,1.88,1.43,4.39,2.25,6.89v162.71Z"/><path class="cls-1" d="m324.35,33.56c-4.47,4.37-8.69,8.42-12.82,12.56-37.28,37.37-74.54,74.75-111.81,112.13-5.22,5.24-10.92,5.25-16.11.04-40.8-40.92-81.59-81.84-122.39-122.77-.6-.6-1.17-1.24-2.35-2.49,3.45-.77,6.36-1.47,9.29-2.03,1.12-.21,2.3-.09,3.45-.09,79.99,0,159.99,0,239.98-.01,4.24,0,8.36.44,12.75,2.66Z"/><path class="cls-1" d="m59.41,235.84c29.62-29.34,59.24-58.67,89.19-88.34,1.03,1.09,2.43,2.64,3.9,4.13,6.23,6.28,12.47,12.54,18.72,18.8,12.17,12.21,28.68,12.17,40.91-.07,7.67-7.68,15.39-15.31,22.67-22.55,29.67,29.4,59.34,58.8,89.56,88.74-3.46.75-6.39,1.46-9.36,1.99-1.21.22-2.49.09-3.74.09-79.79,0-159.57.03-239.36-.06-4.13,0-8.25-.97-12.38-1.49-.04-.41-.08-.83-.11-1.24Z"/><path class="cls-1" d="m45.95,223.64c-.68-3.54-1.93-7.07-1.94-10.61-.13-52.2-.13-104.39,0-156.59,0-3.52,1.28-7.04,1.93-10.41,30.08,29.8,59.79,59.25,89.64,88.82-29.77,29.49-59.44,58.89-89.63,88.79Z"/></svg>