<?xml version="1.0" standalone="no"?>
<svg xmlns:xlink="http://www.w3.org/1999/xlink" id="wave" style="transform:rotate(0deg); transition: 0.3s" viewBox="0 0 1440 310" version="1.1" xmlns="http://www.w3.org/2000/svg"><defs><linearGradient id="sw-gradient-0" x1="0" x2="0" y1="1" y2="0"><stop stop-color="rgba(222, 239, 199, 1)" offset="0%"/><stop stop-color="rgba(222, 239, 199, 1)" offset="100%"/></linearGradient></defs><path style="transform:translate(0, 0px); opacity:1" fill="url(#sw-gradient-0)" d="M0,155L48,165.3C96,176,192,196,288,186C384,176,480,134,576,113.7C672,93,768,93,864,93C960,93,1056,93,1152,103.3C1248,114,1344,134,1440,165.3C1536,196,1632,238,1728,232.5C1824,227,1920,176,2016,139.5C2112,103,2208,83,2304,82.7C2400,83,2496,103,2592,108.5C2688,114,2784,103,2880,118.8C2976,134,3072,176,3168,206.7C3264,238,3360,258,3456,242.8C3552,227,3648,176,3744,129.2C3840,83,3936,41,4032,67.2C4128,93,4224,186,4320,211.8C4416,238,4512,196,4608,180.8C4704,165,4800,176,4896,170.5C4992,165,5088,145,5184,144.7C5280,145,5376,165,5472,144.7C5568,124,5664,62,5760,77.5C5856,93,5952,186,6048,222.2C6144,258,6240,238,6336,196.3C6432,155,6528,93,6624,98.2C6720,103,6816,176,6864,211.8L6912,248L6912,310L6864,310C6816,310,6720,310,6624,310C6528,310,6432,310,6336,310C6240,310,6144,310,6048,310C5952,310,5856,310,5760,310C5664,310,5568,310,5472,310C5376,310,5280,310,5184,310C5088,310,4992,310,4896,310C4800,310,4704,310,4608,310C4512,310,4416,310,4320,310C4224,310,4128,310,4032,310C3936,310,3840,310,3744,310C3648,310,3552,310,3456,310C3360,310,3264,310,3168,310C3072,310,2976,310,2880,310C2784,310,2688,310,2592,310C2496,310,2400,310,2304,310C2208,310,2112,310,2016,310C1920,310,1824,310,1728,310C1632,310,1536,310,1440,310C1344,310,1248,310,1152,310C1056,310,960,310,864,310C768,310,672,310,576,310C480,310,384,310,288,310C192,310,96,310,48,310L0,310Z"/><defs><linearGradient id="sw-gradient-1" x1="0" x2="0" y1="1" y2="0"><stop stop-color="rgba(157, 186, 120, 1)" offset="0%"/><stop stop-color="rgba(157, 186, 120, 1)" offset="100%"/></linearGradient></defs><path style="transform:translate(0, 50px); opacity:0.9" fill="url(#sw-gradient-1)" d="M0,124L48,139.5C96,155,192,186,288,191.2C384,196,480,176,576,144.7C672,114,768,72,864,46.5C960,21,1056,10,1152,46.5C1248,83,1344,165,1440,186C1536,207,1632,165,1728,134.3C1824,103,1920,83,2016,77.5C2112,72,2208,83,2304,108.5C2400,134,2496,176,2592,206.7C2688,238,2784,258,2880,268.7C2976,279,3072,279,3168,248C3264,217,3360,155,3456,108.5C3552,62,3648,31,3744,56.8C3840,83,3936,165,4032,175.7C4128,186,4224,124,4320,118.8C4416,114,4512,165,4608,155C4704,145,4800,72,4896,82.7C4992,93,5088,186,5184,191.2C5280,196,5376,114,5472,93C5568,72,5664,114,5760,113.7C5856,114,5952,72,6048,67.2C6144,62,6240,93,6336,103.3C6432,114,6528,103,6624,103.3C6720,103,6816,114,6864,118.8L6912,124L6912,310L6864,310C6816,310,6720,310,6624,310C6528,310,6432,310,6336,310C6240,310,6144,310,6048,310C5952,310,5856,310,5760,310C5664,310,5568,310,5472,310C5376,310,5280,310,5184,310C5088,310,4992,310,4896,310C4800,310,4704,310,4608,310C4512,310,4416,310,4320,310C4224,310,4128,310,4032,310C3936,310,3840,310,3744,310C3648,310,3552,310,3456,310C3360,310,3264,310,3168,310C3072,310,2976,310,2880,310C2784,310,2688,310,2592,310C2496,310,2400,310,2304,310C2208,310,2112,310,2016,310C1920,310,1824,310,1728,310C1632,310,1536,310,1440,310C1344,310,1248,310,1152,310C1056,310,960,310,864,310C768,310,672,310,576,310C480,310,384,310,288,310C192,310,96,310,48,310L0,310Z"/><defs><linearGradient id="sw-gradient-2" x1="0" x2="0" y1="1" y2="0"><stop stop-color="rgba(112, 150, 70, 1)" offset="0%"/><stop stop-color="rgba(112, 150, 70, 1)" offset="100%"/></linearGradient></defs><path style="transform:translate(0, 100px); opacity:0.8" fill="url(#sw-gradient-2)" d="M0,0L48,25.8C96,52,192,103,288,129.2C384,155,480,155,576,129.2C672,103,768,52,864,51.7C960,52,1056,103,1152,139.5C1248,176,1344,196,1440,191.2C1536,186,1632,155,1728,149.8C1824,145,1920,165,2016,180.8C2112,196,2208,207,2304,217C2400,227,2496,238,2592,242.8C2688,248,2784,248,2880,232.5C2976,217,3072,186,3168,160.2C3264,134,3360,114,3456,93C3552,72,3648,52,3744,77.5C3840,103,3936,176,4032,196.3C4128,217,4224,186,4320,160.2C4416,134,4512,114,4608,103.3C4704,93,4800,93,4896,113.7C4992,134,5088,176,5184,165.3C5280,155,5376,93,5472,77.5C5568,62,5664,93,5760,113.7C5856,134,5952,145,6048,129.2C6144,114,6240,72,6336,46.5C6432,21,6528,10,6624,41.3C6720,72,6816,145,6864,180.8L6912,217L6912,310L6864,310C6816,310,6720,310,6624,310C6528,310,6432,310,6336,310C6240,310,6144,310,6048,310C5952,310,5856,310,5760,310C5664,310,5568,310,5472,310C5376,310,5280,310,5184,310C5088,310,4992,310,4896,310C4800,310,4704,310,4608,310C4512,310,4416,310,4320,310C4224,310,4128,310,4032,310C3936,310,3840,310,3744,310C3648,310,3552,310,3456,310C3360,310,3264,310,3168,310C3072,310,2976,310,2880,310C2784,310,2688,310,2592,310C2496,310,2400,310,2304,310C2208,310,2112,310,2016,310C1920,310,1824,310,1728,310C1632,310,1536,310,1440,310C1344,310,1248,310,1152,310C1056,310,960,310,864,310C768,310,672,310,576,310C480,310,384,310,288,310C192,310,96,310,48,310L0,310Z"/></svg>