<?xml version="1.0" standalone="no"?>
<svg xmlns:xlink="http://www.w3.org/1999/xlink" id="wave" style="transform:rotate(180deg); transition: 0.3s" viewBox="0 0 1440 350" version="1.1" xmlns="http://www.w3.org/2000/svg"><defs><linearGradient id="sw-gradient-0" x1="0" x2="0" y1="1" y2="0"><stop stop-color="rgba(112, 150, 70, 1)" offset="0%"/><stop stop-color="rgba(112, 150, 70, 1)" offset="100%"/></linearGradient></defs><path style="transform:translate(0, 0px); opacity:1" fill="url(#sw-gradient-0)" d="M0,315L60,262.5C120,210,240,105,360,99.2C480,93,600,187,720,221.7C840,257,960,233,1080,192.5C1200,152,1320,93,1440,75.8C1560,58,1680,82,1800,110.8C1920,140,2040,175,2160,175C2280,175,2400,140,2520,128.3C2640,117,2760,128,2880,151.7C3000,175,3120,210,3240,210C3360,210,3480,175,3600,169.2C3720,163,3840,187,3960,210C4080,233,4200,257,4320,256.7C4440,257,4560,233,4680,221.7C4800,210,4920,210,5040,175C5160,140,5280,70,5400,64.2C5520,58,5640,117,5760,157.5C5880,198,6000,222,6120,204.2C6240,187,6360,128,6480,134.2C6600,140,6720,210,6840,239.2C6960,268,7080,257,7200,233.3C7320,210,7440,175,7560,140C7680,105,7800,70,7920,58.3C8040,47,8160,58,8280,52.5C8400,47,8520,23,8580,11.7L8640,0L8640,350L8580,350C8520,350,8400,350,8280,350C8160,350,8040,350,7920,350C7800,350,7680,350,7560,350C7440,350,7320,350,7200,350C7080,350,6960,350,6840,350C6720,350,6600,350,6480,350C6360,350,6240,350,6120,350C6000,350,5880,350,5760,350C5640,350,5520,350,5400,350C5280,350,5160,350,5040,350C4920,350,4800,350,4680,350C4560,350,4440,350,4320,350C4200,350,4080,350,3960,350C3840,350,3720,350,3600,350C3480,350,3360,350,3240,350C3120,350,3000,350,2880,350C2760,350,2640,350,2520,350C2400,350,2280,350,2160,350C2040,350,1920,350,1800,350C1680,350,1560,350,1440,350C1320,350,1200,350,1080,350C960,350,840,350,720,350C600,350,480,350,360,350C240,350,120,350,60,350L0,350Z"/><defs><linearGradient id="sw-gradient-1" x1="0" x2="0" y1="1" y2="0"><stop stop-color="rgba(165, 192, 128, 1)" offset="0%"/><stop stop-color="rgba(165, 192, 128, 1)" offset="100%"/></linearGradient></defs><path style="transform:translate(0, 50px); opacity:0.9" fill="url(#sw-gradient-1)" d="M0,140L60,122.5C120,105,240,70,360,99.2C480,128,600,222,720,268.3C840,315,960,315,1080,268.3C1200,222,1320,128,1440,110.8C1560,93,1680,152,1800,175C1920,198,2040,187,2160,163.3C2280,140,2400,105,2520,75.8C2640,47,2760,23,2880,52.5C3000,82,3120,163,3240,163.3C3360,163,3480,82,3600,75.8C3720,70,3840,140,3960,169.2C4080,198,4200,187,4320,157.5C4440,128,4560,82,4680,105C4800,128,4920,222,5040,250.8C5160,280,5280,245,5400,192.5C5520,140,5640,70,5760,64.2C5880,58,6000,117,6120,163.3C6240,210,6360,245,6480,227.5C6600,210,6720,140,6840,134.2C6960,128,7080,187,7200,227.5C7320,268,7440,292,7560,291.7C7680,292,7800,268,7920,221.7C8040,175,8160,105,8280,87.5C8400,70,8520,105,8580,122.5L8640,140L8640,350L8580,350C8520,350,8400,350,8280,350C8160,350,8040,350,7920,350C7800,350,7680,350,7560,350C7440,350,7320,350,7200,350C7080,350,6960,350,6840,350C6720,350,6600,350,6480,350C6360,350,6240,350,6120,350C6000,350,5880,350,5760,350C5640,350,5520,350,5400,350C5280,350,5160,350,5040,350C4920,350,4800,350,4680,350C4560,350,4440,350,4320,350C4200,350,4080,350,3960,350C3840,350,3720,350,3600,350C3480,350,3360,350,3240,350C3120,350,3000,350,2880,350C2760,350,2640,350,2520,350C2400,350,2280,350,2160,350C2040,350,1920,350,1800,350C1680,350,1560,350,1440,350C1320,350,1200,350,1080,350C960,350,840,350,720,350C600,350,480,350,360,350C240,350,120,350,60,350L0,350Z"/><defs><linearGradient id="sw-gradient-2" x1="0" x2="0" y1="1" y2="0"><stop stop-color="rgba(222, 239, 199, 1)" offset="0%"/><stop stop-color="rgba(222, 239, 199, 1)" offset="100%"/></linearGradient></defs><path style="transform:translate(0, 100px); opacity:0.8" fill="url(#sw-gradient-2)" d="M0,140L60,151.7C120,163,240,187,360,192.5C480,198,600,187,720,180.8C840,175,960,175,1080,198.3C1200,222,1320,268,1440,239.2C1560,210,1680,105,1800,105C1920,105,2040,210,2160,262.5C2280,315,2400,315,2520,268.3C2640,222,2760,128,2880,128.3C3000,128,3120,222,3240,221.7C3360,222,3480,128,3600,81.7C3720,35,3840,35,3960,40.8C4080,47,4200,58,4320,105C4440,152,4560,233,4680,221.7C4800,210,4920,105,5040,52.5C5160,0,5280,0,5400,0C5520,0,5640,0,5760,52.5C5880,105,6000,210,6120,262.5C6240,315,6360,315,6480,285.8C6600,257,6720,198,6840,169.2C6960,140,7080,140,7200,122.5C7320,105,7440,70,7560,75.8C7680,82,7800,128,7920,145.8C8040,163,8160,152,8280,169.2C8400,187,8520,233,8580,256.7L8640,280L8640,350L8580,350C8520,350,8400,350,8280,350C8160,350,8040,350,7920,350C7800,350,7680,350,7560,350C7440,350,7320,350,7200,350C7080,350,6960,350,6840,350C6720,350,6600,350,6480,350C6360,350,6240,350,6120,350C6000,350,5880,350,5760,350C5640,350,5520,350,5400,350C5280,350,5160,350,5040,350C4920,350,4800,350,4680,350C4560,350,4440,350,4320,350C4200,350,4080,350,3960,350C3840,350,3720,350,3600,350C3480,350,3360,350,3240,350C3120,350,3000,350,2880,350C2760,350,2640,350,2520,350C2400,350,2280,350,2160,350C2040,350,1920,350,1800,350C1680,350,1560,350,1440,350C1320,350,1200,350,1080,350C960,350,840,350,720,350C600,350,480,350,360,350C240,350,120,350,60,350L0,350Z"/></svg>