<?xml version="1.0" standalone="no"?>
<svg xmlns:xlink="http://www.w3.org/1999/xlink" id="wave" style="transform:rotate(0deg); transition: 0.3s" viewBox="0 0 1440 490" version="1.1" xmlns="http://www.w3.org/2000/svg"><defs><linearGradient id="sw-gradient-0" x1="0" x2="0" y1="1" y2="0"><stop stop-color="rgba(132, 189, 62, 1)" offset="0%"/><stop stop-color="rgba(132, 189, 62, 1)" offset="100%"/></linearGradient></defs><path style="transform:translate(0, 0px); opacity:1" fill="url(#sw-gradient-0)" d="M0,245L48,212.3C96,180,192,114,288,81.7C384,49,480,49,576,114.3C672,180,768,310,864,326.7C960,343,1056,245,1152,187.8C1248,131,1344,114,1440,155.2C1536,196,1632,294,1728,318.5C1824,343,1920,294,2016,277.7C2112,261,2208,278,2304,261.3C2400,245,2496,196,2592,179.7C2688,163,2784,180,2880,228.7C2976,278,3072,359,3168,375.7C3264,392,3360,343,3456,334.8C3552,327,3648,359,3744,351.2C3840,343,3936,294,4032,277.7C4128,261,4224,278,4320,302.2C4416,327,4512,359,4608,367.5C4704,376,4800,359,4896,367.5C4992,376,5088,408,5184,400.2C5280,392,5376,343,5472,285.8C5568,229,5664,163,5760,171.5C5856,180,5952,261,6048,302.2C6144,343,6240,343,6336,310.3C6432,278,6528,212,6624,212.3C6720,212,6816,278,6864,310.3L6912,343L6912,490L6864,490C6816,490,6720,490,6624,490C6528,490,6432,490,6336,490C6240,490,6144,490,6048,490C5952,490,5856,490,5760,490C5664,490,5568,490,5472,490C5376,490,5280,490,5184,490C5088,490,4992,490,4896,490C4800,490,4704,490,4608,490C4512,490,4416,490,4320,490C4224,490,4128,490,4032,490C3936,490,3840,490,3744,490C3648,490,3552,490,3456,490C3360,490,3264,490,3168,490C3072,490,2976,490,2880,490C2784,490,2688,490,2592,490C2496,490,2400,490,2304,490C2208,490,2112,490,2016,490C1920,490,1824,490,1728,490C1632,490,1536,490,1440,490C1344,490,1248,490,1152,490C1056,490,960,490,864,490C768,490,672,490,576,490C480,490,384,490,288,490C192,490,96,490,48,490L0,490Z"/><defs><linearGradient id="sw-gradient-1" x1="0" x2="0" y1="1" y2="0"><stop stop-color="rgba(222, 229, 218, 1)" offset="0%"/><stop stop-color="rgba(222, 229, 218, 1)" offset="100%"/></linearGradient></defs><path style="transform:translate(0, 50px);opacity: 1.9;" fill="url(#sw-gradient-1)" d="M0,98L48,106.2C96,114,192,131,288,155.2C384,180,480,212,576,253.2C672,294,768,343,864,302.2C960,261,1056,131,1152,130.7C1248,131,1344,261,1440,269.5C1536,278,1632,163,1728,155.2C1824,147,1920,245,2016,302.2C2112,359,2208,376,2304,383.8C2400,392,2496,392,2592,351.2C2688,310,2784,229,2880,228.7C2976,229,3072,310,3168,343C3264,376,3360,359,3456,343C3552,327,3648,310,3744,261.3C3840,212,3936,131,4032,155.2C4128,180,4224,310,4320,343C4416,376,4512,310,4608,245C4704,180,4800,114,4896,122.5C4992,131,5088,212,5184,212.3C5280,212,5376,131,5472,106.2C5568,82,5664,114,5760,179.7C5856,245,5952,343,6048,343C6144,343,6240,245,6336,196C6432,147,6528,147,6624,179.7C6720,212,6816,278,6864,310.3L6912,343L6912,490L6864,490C6816,490,6720,490,6624,490C6528,490,6432,490,6336,490C6240,490,6144,490,6048,490C5952,490,5856,490,5760,490C5664,490,5568,490,5472,490C5376,490,5280,490,5184,490C5088,490,4992,490,4896,490C4800,490,4704,490,4608,490C4512,490,4416,490,4320,490C4224,490,4128,490,4032,490C3936,490,3840,490,3744,490C3648,490,3552,490,3456,490C3360,490,3264,490,3168,490C3072,490,2976,490,2880,490C2784,490,2688,490,2592,490C2496,490,2400,490,2304,490C2208,490,2112,490,2016,490C1920,490,1824,490,1728,490C1632,490,1536,490,1440,490C1344,490,1248,490,1152,490C1056,490,960,490,864,490C768,490,672,490,576,490C480,490,384,490,288,490C192,490,96,490,48,490L0,490Z"/><defs><linearGradient id="sw-gradient-2" x1="0" x2="0" y1="1" y2="0"><stop stop-color="rgba(112, 150, 70, 1)" offset="0%"/><stop stop-color="rgba(112, 150, 70, 1)" offset="100%"/></linearGradient></defs><path style="transform:translate(0, 100px);opacity: 1.8;" fill="url(#sw-gradient-2)" d="M0,294L48,261.3C96,229,192,163,288,163.3C384,163,480,229,576,269.5C672,310,768,327,864,302.2C960,278,1056,212,1152,196C1248,180,1344,212,1440,204.2C1536,196,1632,147,1728,138.8C1824,131,1920,163,2016,196C2112,229,2208,261,2304,294C2400,327,2496,359,2592,343C2688,327,2784,261,2880,196C2976,131,3072,65,3168,73.5C3264,82,3360,163,3456,179.7C3552,196,3648,147,3744,138.8C3840,131,3936,163,4032,155.2C4128,147,4224,98,4320,98C4416,98,4512,147,4608,171.5C4704,196,4800,196,4896,212.3C4992,229,5088,261,5184,294C5280,327,5376,359,5472,326.7C5568,294,5664,196,5760,179.7C5856,163,5952,229,6048,245C6144,261,6240,229,6336,187.8C6432,147,6528,98,6624,130.7C6720,163,6816,278,6864,334.8L6912,392L6912,490L6864,490C6816,490,6720,490,6624,490C6528,490,6432,490,6336,490C6240,490,6144,490,6048,490C5952,490,5856,490,5760,490C5664,490,5568,490,5472,490C5376,490,5280,490,5184,490C5088,490,4992,490,4896,490C4800,490,4704,490,4608,490C4512,490,4416,490,4320,490C4224,490,4128,490,4032,490C3936,490,3840,490,3744,490C3648,490,3552,490,3456,490C3360,490,3264,490,3168,490C3072,490,2976,490,2880,490C2784,490,2688,490,2592,490C2496,490,2400,490,2304,490C2208,490,2112,490,2016,490C1920,490,1824,490,1728,490C1632,490,1536,490,1440,490C1344,490,1248,490,1152,490C1056,490,960,490,864,490C768,490,672,490,576,490C480,490,384,490,288,490C192,490,96,490,48,490L0,490Z"/></svg>