<svg id="visual" viewBox="0 0 900 600" width="900" height="600" xmlns="http://www.w3.org/2000/svg" xmlns:xlink="http://www.w3.org/1999/xlink" version="1.1"><path d="M0 503L30 501.2C60 499.3 120 495.7 180 482.5C240 469.3 300 446.7 360 449.3C420 452 480 480 540 479.5C600 479 660 450 720 436.5C780 423 840 425 870 426L900 427L900 601L870 601C840 601 780 601 720 601C660 601 600 601 540 601C480 601 420 601 360 601C300 601 240 601 180 601C120 601 60 601 30 601L0 601Z" fill="#84bd3e" stroke-linecap="round" stroke-linejoin="miter"></path></svg>